<svg width="1440" height="900" viewBox="0 0 1440 900" fill="none" xmlns="http://www.w3.org/2000/svg">
<g clip-path="url(#clip0_42_5)">
<rect width="1440" height="900" fill="#69C8E4"/>
<path d="M843.968 378.87C833.848 408.787 790.121 389.95 779.502 375.961C793.369 395.075 776.128 415.85 753.64 423.745C772.755 423.745 783.25 448.26 783.25 459.895C796.443 445.269 814.483 449.091 821.854 452.831C874.627 475.435 837.596 503.939 809.861 486.903C788.816 509.124 765.952 509.145 746.837 505.385C723.631 502.393 724.773 476.811 728.246 464.394C713.03 465.999 702.612 457.947 700.736 454.277C678.248 418.958 692.172 390.145 722.531 368.066C766.577 336.034 784.534 347.811 797.35 367.88C794.057 362.589 790.089 356.35 790.089 353.723C824.14 348.52 843.968 365.989 843.968 378.87Z" fill="white"/>
<path d="M734.525 463.219C732.354 463.801 730.258 464.182 728.246 464.394M728.246 464.394C713.03 465.999 702.612 457.947 700.736 454.277C678.248 418.958 692.172 390.145 722.531 368.066C769.382 333.994 786.715 349.489 799.741 371.806C796.443 366.155 790.089 357.047 790.089 353.723C824.14 348.52 843.968 365.989 843.968 378.87C833.848 408.787 790.121 389.95 779.502 375.961C793.369 395.075 776.128 415.85 753.64 423.745C772.755 423.745 783.25 448.26 783.25 459.895C796.443 445.269 814.483 449.091 821.854 452.831C874.627 475.435 837.596 503.939 809.861 486.903C788.816 509.124 765.952 509.145 746.837 505.385C723.631 502.393 724.773 476.811 728.246 464.394Z" stroke="#92D5E8" stroke-width="10" stroke-linecap="round" stroke-linejoin="round"/>
<path d="M646.512 361.008C612.33 309.485 563.306 390.51 598.163 403.806C602.285 401.313 610.531 397.075 610.531 400.067C575.749 434.532 596.039 456.809 610.531 463.64C608.907 463.64 603.711 458.238 601.161 463.64C584.295 499.374 605.284 512.255 628.147 512.255C678.51 506.465 657.95 465.684 650.735 451.373L650.635 451.175C708.805 464.803 731.343 441.341 735.341 427.906C735.216 425.828 730.918 422.92 714.727 427.906C744.711 413.612 743.212 395.911 738.714 388.848C734.966 386.355 725.671 382.864 718.475 388.848C709.779 336.659 666.877 348.543 646.512 361.008Z" fill="white" stroke="#92D5E8" stroke-width="10" stroke-linecap="round" stroke-linejoin="round"/>
<path d="M652.509 429.152C658.506 417.518 648.137 399.236 639.391 393.418C659.631 406.299 677.996 400.482 692.614 396.327C683.019 408.626 688.616 423.335 692.614 429.152C675.747 413.778 666.377 418.349 652.509 429.152Z" fill="#69C8E4" stroke="#92D5E8" stroke-width="10" stroke-linecap="round" stroke-linejoin="round"/>
<path d="M451.116 443.319C449.658 429.101 454.373 408.027 480.499 394.74C478.25 388.369 477.426 373.383 492.118 364.408C510.483 353.189 561.082 332.413 552.836 399.726C556.959 388.508 573.825 386.846 584.32 403.882C588.707 422.93 589.171 441.189 576.322 458.656C581.864 452.163 593.727 450.161 600.062 465.377C606.808 481.582 597.813 519.394 547.214 494.048C538.594 485.322 547.214 473.688 547.214 465.377C542.217 472.995 523.302 485.405 487.62 474.103C487.62 483.244 479 513.992 440.77 499.865C431.447 491.311 422.675 455.856 451.116 443.319Z" fill="white"/>
<path d="M453.138 452.496C448.641 440.17 447.816 411.361 480.499 394.74C478.25 388.369 477.426 373.383 492.118 364.408C510.483 353.189 561.082 332.413 552.836 399.726C556.959 388.508 573.825 386.846 584.32 403.882C588.818 423.411 589.192 442.109 575.325 459.976C580.298 452.496 593.315 449.172 600.062 465.377C606.808 481.582 597.813 519.394 547.214 494.048C538.594 485.322 547.214 473.688 547.214 465.377C542.217 472.995 523.302 485.405 487.62 474.103C487.62 483.244 479 513.992 440.77 499.865C429.9 489.893 419.781 443.355 468.505 439.2" stroke="#92D5E8" stroke-width="10" stroke-linecap="round" stroke-linejoin="round"/>
<path d="M491.539 441.32C488.491 443.284 485.723 444.803 483.497 445.848C486.348 444.128 489.022 442.624 491.539 441.32C503.036 433.915 518.525 420.196 523.976 401.804C525.694 416.404 526.318 431.731 534.369 441.489C537.474 443.645 540.67 446.136 544.216 448.757C540.056 446.991 536.857 444.506 534.369 441.489C523.05 433.632 512.943 430.238 491.539 441.32Z" fill="#69C8E4"/>
<path d="M483.497 445.848C494.117 440.862 517.08 425.073 523.976 401.804C526.225 420.918 526.6 441.278 544.216 448.757C526.225 435.46 517.23 425.488 483.497 445.848Z" stroke="#92D5E8" stroke-width="10" stroke-linecap="round" stroke-linejoin="round"/>
<path d="M309.589 371.752C306.59 371.752 300.843 370.367 298.345 369.675C307.59 356.655 334.401 338.428 367.683 369.675C365.809 363.442 363.561 334.356 430.651 348.899C433.049 351.226 432.9 357.902 432.525 360.949C440.77 369.952 448.042 388.954 411.161 392.943C382.996 395.99 366.153 393.575 357.93 390.845C361.232 393.139 364.151 396.935 363.186 402.5C361.882 410.015 358.946 416.726 356.144 420.255C362.958 416.414 377.153 409.607 382.676 408.733C390.547 407.486 448.267 395.852 436.273 446.129C438.522 450.284 481.624 518.013 374.43 494.744C369.932 496.821 347.069 523.83 319.334 500.146C304.716 481.863 296.471 449.453 305.841 433.248C305.841 431.254 309.491 426.877 311.316 424.938C303.424 412.179 297.957 392.766 309.589 371.752Z" fill="white"/>
<path d="M320.833 436.572C317.877 433.92 314.41 429.94 311.316 424.938M311.316 424.938C303.424 412.179 297.957 392.766 309.589 371.752C306.59 371.752 300.843 370.367 298.345 369.675C307.59 356.655 334.401 338.428 367.683 369.675C365.809 363.442 363.561 334.356 430.651 348.899C433.049 351.226 432.9 357.902 432.525 360.949C440.77 369.952 448.042 388.954 411.161 392.943C374.28 396.932 356.814 391.558 352.691 388.373C356.814 389.481 364.685 393.857 363.186 402.5C361.312 413.303 356.065 422.445 352.691 422.86C349.318 423.276 374.805 409.979 382.676 408.733C390.547 407.486 448.267 395.852 436.273 446.129C438.522 450.284 481.624 518.013 374.43 494.744C369.932 496.821 347.069 523.83 319.334 500.146C304.716 481.863 296.471 449.453 305.841 433.248C305.841 431.254 309.491 426.877 311.316 424.938Z" stroke="#92D5E8" stroke-width="10" stroke-linecap="round" stroke-linejoin="round"/>
<path d="M386.424 446.129C378.328 452.777 360.063 448.899 351.942 446.129C365.06 454.439 358.688 458.179 356.814 468.151C371.806 461.918 365.81 462.749 390.172 471.475C377.428 457.348 386.424 454.024 386.424 446.129Z" fill="#69C8E4" stroke="#92D5E8" stroke-width="10" stroke-linecap="round" stroke-linejoin="round"/>
<path d="M1090.39 371.273C1080.57 370.917 1075.91 363.438 1084.57 355.683C1101.71 324.275 1194.5 356.987 1103.31 400.675C1111.31 397.077 1124.21 394.313 1121.67 408.038C1119.12 421.866 1104.13 429.514 1093.25 433.858C1113.51 430.839 1136.07 454.78 1101.81 464.548C1129.79 473.827 1170.25 495.628 1108.18 508.592C1084.57 504.852 1062.39 506.872 1077.82 470.365C1071.44 470.365 1046.62 466.648 1039.83 441.64C1045.77 470.775 1049.16 525.93 990.866 508.592C972.875 492.387 979.564 375.628 983.744 364.409C990.866 345.295 1047.58 332.248 1061.02 386.431C1067.28 378.753 1076.69 372.519 1090.39 371.273Z" fill="white"/>
<path d="M1050.08 413.855C1050.6 406.588 1053.62 395.501 1061.02 386.431M1061.02 386.431C1067.86 378.041 1078.46 371.377 1094.31 371.057C1081.94 372.787 1074.82 364.409 1084.57 355.683C1101.81 324.104 1195.51 357.345 1101.81 401.39C1109.55 397.512 1124.37 393.412 1121.67 408.038C1118.3 426.32 1093.19 433.8 1084.57 437.124C1105.56 423.412 1141.16 453.329 1101.81 464.548C1129.79 473.827 1170.25 495.628 1108.18 508.592C1084.57 504.852 1062.39 506.872 1077.82 470.365C1071.07 470.365 1043.71 466.21 1038.84 437.124C1045.21 464.548 1052.33 526.874 990.866 508.592C972.875 492.387 979.564 375.628 983.744 364.409C990.866 345.295 1047.58 332.248 1061.02 386.431Z" stroke="#92D5E8" stroke-width="10" stroke-linecap="round" stroke-linejoin="round"/>
<path d="M855.757 398.476C849.01 390.582 832.894 358.587 875.996 348.199C905.98 348.199 912.352 361.08 898.484 395.568C903.981 390.166 913.851 384.765 909.354 406.371C902.982 422.992 898.484 427.147 898.484 436.704C898.484 445.828 917.958 387.535 941.901 384.047C943.719 360.633 985.496 328.656 1010.18 378.116C1011.55 382.964 1012.28 393.241 1004.18 395.568C1000.88 392.244 996.558 386.427 994.809 383.934C1005.3 400.693 1019.02 438.781 989.937 457.064C994.809 457.064 1037.91 491.551 980.567 504.848C923.221 518.144 938.588 465.789 952.081 464.127C946.387 458.165 934.551 450.131 940.239 437.276C928.616 452.936 912.809 464.127 903.732 464.127C915.351 464.127 944.96 494.044 890.988 504.848C861.379 504.848 840.015 493.167 847.886 445.822C839.268 434.892 835.861 418.259 855.757 398.476Z" fill="white"/>
<path d="M861.379 457.064C856.958 454.701 851.866 450.869 847.886 445.822M847.886 445.822C839.268 434.892 835.861 418.259 855.757 398.476C849.01 390.582 832.894 358.587 875.996 348.199C905.98 348.199 912.352 361.08 898.484 395.568C903.981 390.166 913.851 384.765 909.354 406.371C902.982 422.992 898.484 427.147 898.484 436.704C898.484 446.26 919.848 381.856 945.335 383.934C945.335 388.089 933.716 384.765 945.335 395.568C927.719 375.208 980.941 319.529 1010.18 378.116C1011.55 382.964 1012.28 393.241 1004.18 395.568C1000.88 392.244 996.558 386.427 994.809 383.934C1005.3 400.693 1019.02 438.781 989.937 457.064C994.809 457.064 1037.91 491.551 980.567 504.848C923.221 518.144 938.588 465.789 952.081 464.127C945.335 457.064 929.968 447.091 945.335 429.64C933.716 449.169 914.226 464.127 903.732 464.127C915.351 464.127 944.96 494.044 890.988 504.848C861.379 504.848 840.015 493.167 847.886 445.822Z" stroke="#92D5E8" stroke-width="10" stroke-linecap="round" stroke-linejoin="round"/>
<path d="M1257.81 298.175C1234.43 283.984 1229.47 296.662 1229.91 304.775C1187.41 304.775 1208.66 333.651 1229.91 324.988C1227.92 339.426 1257.81 334.889 1262.46 331.176C1290.62 340.086 1295.45 328.839 1294.34 322.101C1342.83 310.138 1306.3 294.05 1289.69 301.475C1285.04 282.087 1262.46 294.462 1257.81 298.175Z" stroke="#83D7F1" stroke-width="3"/>
<g filter="url(#filter0_d_42_5)">
<path d="M504.475 190.628C480.315 202.053 464.432 195.388 459.511 190.628V0.831024H1440V270.325C1389 273.273 1374.9 251.898 1374.23 240.842V227.943H1229.27C1183.64 257.426 1118.54 231.628 1118.54 198.46C1086.33 227.021 1043.37 207.212 1043.37 179.111C1026.03 187.617 974.938 190.233 967.188 164.129C957.112 173.086 922.147 185.078 904.455 169.898C897.073 209.976 823.922 220.111 803.118 207.212C795.602 252.543 746.298 248.519 722.585 240.842C722.585 323.302 572.257 289.673 594.403 240.842C517.226 253.74 504.475 202.145 504.475 190.628Z" fill="#92D5E8"/>
</g>
<g filter="url(#filter1_d_42_5)">
<path d="M93.4631 253.704C68.8957 270.556 20.9179 268.969 0 266.068V0H783.088C787.316 45.1843 803.783 113.571 788.428 102.581C777.747 130.973 722.337 135.553 691.627 125.02C658.248 170.357 588.15 154.787 570.125 135.553C539.683 170.357 489.791 172.036 468.651 168.525C438.609 266.068 327.121 239.965 306.426 197.834C295.522 208.367 269.708 226.318 253.686 213.862C251.683 339.34 93.4631 279.807 93.4631 253.704Z" fill="#E2F3FA"/>
<path d="M1214.35 197.834C1151.87 197.834 1140.7 166.693 1142.92 151.123V0H1440V253.704C1426.43 253.704 1399.28 250.223 1399.28 236.302C1277.77 274.769 1214.35 229.432 1214.35 197.834Z" fill="#E2F3FA"/>
</g>
<g filter="url(#filter2_d_42_5)">
<path d="M50.7842 149.156C33.678 163.814 9.80046 165.341 0 164.272V1.66205H1440V73.1189C1420.62 75.8673 1379.86 76.6918 1371.84 58.003C1340.44 74.4931 1292.32 82.7381 1272.95 73.1189C1270.94 88.2348 1236.19 107.931 1207.46 107.931C1166.7 174.349 1098.54 149.156 1079.16 135.873C1064.46 163.814 950.868 164.272 914.784 135.873C825.244 182.136 791.165 121.215 791.165 107.931C752.408 107.931 742.385 89.609 728.353 73.1189C708.974 88.2348 633.466 81.3639 633.466 58.003C519.202 104.267 491.137 25.0229 486.459 23.1907C482.717 21.7249 465.299 14.9457 457.058 11.7393C449.93 17.694 432.735 26.0307 420.974 11.7393C408.947 48.3839 333.439 58.003 300.028 41.513C314.729 97.854 253.921 107.931 229.865 107.931C220.51 187.633 67.4896 164.272 50.7842 149.156Z" fill="white"/>
</g>
<g filter="url(#filter3_d_42_5)">
<path d="M272.485 673.503C253.333 657.731 223.275 671.312 210.64 680.074V898.338H1212.12V628.911C1150.27 613.421 1119.02 645.809 1119.02 680.074C1104.12 668.433 1084.44 670.843 1076.46 673.503V712.931H981.366C946.787 712.931 943.462 732.019 946.122 741.563V754.706H886.273C882.283 743.91 817.778 712.931 808.468 741.563C778.677 696.127 740.196 703.543 724.679 712.931C666.825 637.829 583.036 696.033 594.341 729.829C585.696 725.448 565.746 719.315 555.106 729.829C555.106 716.686 506.562 680.074 482.622 703.543C484.617 628.442 361.594 635.482 361.594 666.931C324.354 630.319 272.485 645.809 272.485 673.503Z" fill="#92D5E8"/>
</g>
<g filter="url(#filter4_d_42_5)">
<path d="M39.5218 674.518C39.5218 663.99 13.6737 658.538 0.749634 657.128V899.169H296.22V755.824C284.856 717.756 230.709 719.166 219.345 709.766C202.632 626.579 54.897 657.128 39.5218 674.518Z" fill="#E2F3FA"/>
<path d="M756.807 783.553C698.515 761.37 672.355 792.796 666.562 811.282V899.169H1440V643.029C1410.05 625.357 1367.36 640.052 1349.75 649.608C1259.91 564.636 1166.59 641.619 1190.65 692.847C1173.94 694.1 1140.52 699.239 1140.52 709.766C1050.94 622.82 962.701 709.766 975.402 741.255C945.32 726.686 870.45 755.824 870.45 783.553C843.71 733.735 756.807 755.824 756.807 783.553Z" fill="#E2F3FA"/>
</g>
<g filter="url(#filter5_d_42_5)">
<path d="M1254.35 497.395C1211.94 483.464 1197.8 499.606 1196.04 509.419C1143.02 518.54 1188.75 551.295 1217.24 539.271C1238.98 556.519 1263.41 545.629 1272.91 538.027C1338.51 547.149 1317.31 505.687 1296.1 507.76C1291.46 488.273 1259.65 492.419 1254.35 497.395Z" fill="#9CDAE9"/>
</g>
<g filter="url(#filter6_d_42_5)">
<path d="M64.1087 852.435C55.5719 836.634 18.3123 832.346 0.749634 832.178V897.507H1440V731.905C1428.22 729.879 1400.12 729.575 1381.98 744.565C1258.59 689.365 1189.9 768.368 1208.57 799.766C1124.54 788.625 1129.87 845.345 1129.87 865.095C1075.99 839.166 1024.28 871.173 1005.16 890.417H935.796C959.805 846.358 811.078 813.946 811.078 852.435C784.401 828.937 732.38 829.139 709.704 832.178C696.143 817.154 664.085 789.638 644.344 799.766C655.015 735.956 532.299 734.437 521.628 760.265C490.282 720.763 377.569 734.437 358.895 760.265C267.658 714.078 231.065 767.355 224.174 799.766C206.166 798.416 170.152 803.007 170.152 832.178C136.138 823.568 88.1184 832.178 64.1087 852.435Z" fill="white"/>
</g>
<g filter="url(#filter7_d_42_5)">
<path d="M1423.19 365.096C1423.73 358.447 1434.62 357.339 1440 357.616C1438.43 375.762 1440 418.336 1440 436.62C1405.57 455.238 1368.94 436.85 1357.29 426.184C1275.92 445.299 1283.99 378.81 1333.08 384.628C1340.48 340.994 1403.69 357.616 1423.19 365.096Z" fill="white"/>
</g>
<g filter="url(#filter8_d_42_5)">
<path d="M99.0428 528.502C57.0326 509.875 16.0098 524.067 0.749634 533.492V606.672C7.70645 607.643 23.2359 608.169 29.699 602.514C59.3216 640.102 113.405 618.176 136.744 602.514C249.175 619.562 220.899 546.382 173.773 546.382C173.099 521.018 105.775 516.444 99.0428 528.502Z" fill="white"/>
</g>
<g filter="url(#filter9_d_42_5)">
<path d="M157.332 370.932C105.12 352.869 84.9636 374.277 81.4117 387.239C10.1531 401.874 69.4243 438.669 106.053 426.961C135.355 451.38 169.764 434.906 183.305 423.616C258.559 442.85 248.57 381.804 211.942 385.149C207.946 362.57 167.988 363.406 157.332 370.932Z" fill="#9BDAEB"/>
</g>
<g filter="url(#filter10_d_42_5)">
<path d="M351.343 530.236C316.913 521.631 307.864 532.994 307.644 539.752C267.917 547.199 302.347 569.954 322.21 562.507C336.777 576.573 365.91 564.989 365.91 560.438C413.582 567.471 394.381 537.683 382.463 537.683C378.49 523.203 355.978 526.099 351.343 530.236Z" fill="white"/>
</g>
<path d="M341.375 269.754C323.247 257.38 317.827 269.336 317.382 276.861C279.394 270.59 298.055 300.69 317.382 291.075C314.717 307.797 344.708 301.944 346.707 298.6C374.433 308.633 376.476 296.927 374.033 289.821C420.019 281.878 383.363 266.828 370.7 272.681C368.701 252.614 342.708 268.5 341.375 269.754Z" stroke="#83D7F1" stroke-width="3"/>
</g>
<defs>
<filter id="filter0_d_42_5" x="455.511" y="0.831024" width="988.489" height="298.028" filterUnits="userSpaceOnUse" color-interpolation-filters="sRGB">
<feFlood flood-opacity="0" result="BackgroundImageFix"/>
<feColorMatrix in="SourceAlpha" type="matrix" values="0 0 0 0 0 0 0 0 0 0 0 0 0 0 0 0 0 0 127 0" result="hardAlpha"/>
<feOffset dy="4"/>
<feGaussianBlur stdDeviation="2"/>
<feComposite in2="hardAlpha" operator="out"/>
<feColorMatrix type="matrix" values="0 0 0 0 0 0 0 0 0 0 0 0 0 0 0 0 0 0 0.25 0"/>
<feBlend mode="normal" in2="BackgroundImageFix" result="effect1_dropShadow_42_5"/>
<feBlend mode="normal" in="SourceGraphic" in2="effect1_dropShadow_42_5" result="shape"/>
</filter>
<filter id="filter1_d_42_5" x="-4" y="0" width="1448" height="298.859" filterUnits="userSpaceOnUse" color-interpolation-filters="sRGB">
<feFlood flood-opacity="0" result="BackgroundImageFix"/>
<feColorMatrix in="SourceAlpha" type="matrix" values="0 0 0 0 0 0 0 0 0 0 0 0 0 0 0 0 0 0 127 0" result="hardAlpha"/>
<feOffset dy="4"/>
<feGaussianBlur stdDeviation="2"/>
<feComposite in2="hardAlpha" operator="out"/>
<feColorMatrix type="matrix" values="0 0 0 0 0 0 0 0 0 0 0 0 0 0 0 0 0 0 0.25 0"/>
<feBlend mode="normal" in2="BackgroundImageFix" result="effect1_dropShadow_42_5"/>
<feBlend mode="normal" in="SourceGraphic" in2="effect1_dropShadow_42_5" result="shape"/>
</filter>
<filter id="filter2_d_42_5" x="-4" y="1.66205" width="1448" height="170.881" filterUnits="userSpaceOnUse" color-interpolation-filters="sRGB">
<feFlood flood-opacity="0" result="BackgroundImageFix"/>
<feColorMatrix in="SourceAlpha" type="matrix" values="0 0 0 0 0 0 0 0 0 0 0 0 0 0 0 0 0 0 127 0" result="hardAlpha"/>
<feOffset dy="4"/>
<feGaussianBlur stdDeviation="2"/>
<feComposite in2="hardAlpha" operator="out"/>
<feColorMatrix type="matrix" values="0 0 0 0 0 0 0 0 0 0 0 0 0 0 0 0 0 0 0.25 0"/>
<feBlend mode="normal" in2="BackgroundImageFix" result="effect1_dropShadow_42_5"/>
<feBlend mode="normal" in="SourceGraphic" in2="effect1_dropShadow_42_5" result="shape"/>
</filter>
<filter id="filter3_d_42_5" x="210.64" y="620.931" width="1009.48" height="281.407" filterUnits="userSpaceOnUse" color-interpolation-filters="sRGB">
<feFlood flood-opacity="0" result="BackgroundImageFix"/>
<feColorMatrix in="SourceAlpha" type="matrix" values="0 0 0 0 0 0 0 0 0 0 0 0 0 0 0 0 0 0 127 0" result="hardAlpha"/>
<feOffset dx="4"/>
<feGaussianBlur stdDeviation="2"/>
<feComposite in2="hardAlpha" operator="out"/>
<feColorMatrix type="matrix" values="0 0 0 0 0 0 0 0 0 0 0 0 0 0 0 0 0 0 0.25 0"/>
<feBlend mode="normal" in2="BackgroundImageFix" result="effect1_dropShadow_42_5"/>
<feBlend mode="normal" in="SourceGraphic" in2="effect1_dropShadow_42_5" result="shape"/>
</filter>
<filter id="filter4_d_42_5" x="0.749634" y="607.634" width="1447.25" height="295.535" filterUnits="userSpaceOnUse" color-interpolation-filters="sRGB">
<feFlood flood-opacity="0" result="BackgroundImageFix"/>
<feColorMatrix in="SourceAlpha" type="matrix" values="0 0 0 0 0 0 0 0 0 0 0 0 0 0 0 0 0 0 127 0" result="hardAlpha"/>
<feOffset dx="4"/>
<feGaussianBlur stdDeviation="2"/>
<feComposite in2="hardAlpha" operator="out"/>
<feColorMatrix type="matrix" values="0 0 0 0 0 0 0 0 0 0 0 0 0 0 0 0 0 0 0.25 0"/>
<feBlend mode="normal" in2="BackgroundImageFix" result="effect1_dropShadow_42_5"/>
<feBlend mode="normal" in="SourceGraphic" in2="effect1_dropShadow_42_5" result="shape"/>
</filter>
<filter id="filter5_d_42_5" x="1171.64" y="487.967" width="153.424" height="64.5097" filterUnits="userSpaceOnUse" color-interpolation-filters="sRGB">
<feFlood flood-opacity="0" result="BackgroundImageFix"/>
<feColorMatrix in="SourceAlpha" type="matrix" values="0 0 0 0 0 0 0 0 0 0 0 0 0 0 0 0 0 0 127 0" result="hardAlpha"/>
<feOffset dx="4"/>
<feGaussianBlur stdDeviation="2"/>
<feComposite in2="hardAlpha" operator="out"/>
<feColorMatrix type="matrix" values="0 0 0 0 0 0 0 0 0 0 0 0 0 0 0 0 0 0 0.25 0"/>
<feBlend mode="normal" in2="BackgroundImageFix" result="effect1_dropShadow_42_5"/>
<feBlend mode="normal" in="SourceGraphic" in2="effect1_dropShadow_42_5" result="shape"/>
</filter>
<filter id="filter6_d_42_5" x="0.749634" y="721.485" width="1447.25" height="180.022" filterUnits="userSpaceOnUse" color-interpolation-filters="sRGB">
<feFlood flood-opacity="0" result="BackgroundImageFix"/>
<feColorMatrix in="SourceAlpha" type="matrix" values="0 0 0 0 0 0 0 0 0 0 0 0 0 0 0 0 0 0 127 0" result="hardAlpha"/>
<feOffset dx="4"/>
<feGaussianBlur stdDeviation="2"/>
<feComposite in2="hardAlpha" operator="out"/>
<feColorMatrix type="matrix" values="0 0 0 0 0 0 0 0 0 0 0 0 0 0 0 0 0 0 0.25 0"/>
<feBlend mode="normal" in2="BackgroundImageFix" result="effect1_dropShadow_42_5"/>
<feBlend mode="normal" in="SourceGraphic" in2="effect1_dropShadow_42_5" result="shape"/>
</filter>
<filter id="filter7_d_42_5" x="1296.08" y="351.679" width="151.925" height="96.9196" filterUnits="userSpaceOnUse" color-interpolation-filters="sRGB">
<feFlood flood-opacity="0" result="BackgroundImageFix"/>
<feColorMatrix in="SourceAlpha" type="matrix" values="0 0 0 0 0 0 0 0 0 0 0 0 0 0 0 0 0 0 127 0" result="hardAlpha"/>
<feOffset dx="4"/>
<feGaussianBlur stdDeviation="2"/>
<feComposite in2="hardAlpha" operator="out"/>
<feColorMatrix type="matrix" values="0 0 0 0 0 0 0 0 0 0 0 0 0 0 0 0 0 0 0.25 0"/>
<feBlend mode="normal" in2="BackgroundImageFix" result="effect1_dropShadow_42_5"/>
<feBlend mode="normal" in="SourceGraphic" in2="effect1_dropShadow_42_5" result="shape"/>
</filter>
<filter id="filter8_d_42_5" x="-3.25037" y="519.391" width="222.388" height="111.878" filterUnits="userSpaceOnUse" color-interpolation-filters="sRGB">
<feFlood flood-opacity="0" result="BackgroundImageFix"/>
<feColorMatrix in="SourceAlpha" type="matrix" values="0 0 0 0 0 0 0 0 0 0 0 0 0 0 0 0 0 0 127 0" result="hardAlpha"/>
<feOffset dy="4"/>
<feGaussianBlur stdDeviation="2"/>
<feComposite in2="hardAlpha" operator="out"/>
<feColorMatrix type="matrix" values="0 0 0 0 0 0 0 0 0 0 0 0 0 0 0 0 0 0 0.25 0"/>
<feBlend mode="normal" in2="BackgroundImageFix" result="effect1_dropShadow_42_5"/>
<feBlend mode="normal" in="SourceGraphic" in2="effect1_dropShadow_42_5" result="shape"/>
</filter>
<filter id="filter9_d_42_5" x="43.975" y="363.989" width="199.9" height="83.6233" filterUnits="userSpaceOnUse" color-interpolation-filters="sRGB">
<feFlood flood-opacity="0" result="BackgroundImageFix"/>
<feColorMatrix in="SourceAlpha" type="matrix" values="0 0 0 0 0 0 0 0 0 0 0 0 0 0 0 0 0 0 127 0" result="hardAlpha"/>
<feOffset dy="4"/>
<feGaussianBlur stdDeviation="2"/>
<feComposite in2="hardAlpha" operator="out"/>
<feColorMatrix type="matrix" values="0 0 0 0 0 0 0 0 0 0 0 0 0 0 0 0 0 0 0.25 0"/>
<feBlend mode="normal" in2="BackgroundImageFix" result="effect1_dropShadow_42_5"/>
<feBlend mode="normal" in="SourceGraphic" in2="effect1_dropShadow_42_5" result="shape"/>
</filter>
<filter id="filter10_d_42_5" x="289.349" y="522.87" width="115.194" height="50.3823" filterUnits="userSpaceOnUse" color-interpolation-filters="sRGB">
<feFlood flood-opacity="0" result="BackgroundImageFix"/>
<feColorMatrix in="SourceAlpha" type="matrix" values="0 0 0 0 0 0 0 0 0 0 0 0 0 0 0 0 0 0 127 0" result="hardAlpha"/>
<feOffset dx="4"/>
<feGaussianBlur stdDeviation="2"/>
<feComposite in2="hardAlpha" operator="out"/>
<feColorMatrix type="matrix" values="0 0 0 0 0 0 0 0 0 0 0 0 0 0 0 0 0 0 0.25 0"/>
<feBlend mode="normal" in2="BackgroundImageFix" result="effect1_dropShadow_42_5"/>
<feBlend mode="normal" in="SourceGraphic" in2="effect1_dropShadow_42_5" result="shape"/>
</filter>
<clipPath id="clip0_42_5">
<rect width="1440" height="900" fill="white"/>
</clipPath>
</defs>
</svg>
