<svg width="140" height="85" viewBox="0 0 140 85" fill="none" xmlns="http://www.w3.org/2000/svg">
<rect x="2.5" y="2.5" width="135" height="80" rx="17.5" fill="#F11D81" stroke="white" stroke-width="5"/>
<path d="M77.5 69.875H62.5C48.925 69.875 43.125 64.075 43.125 50.5V35.5C43.125 21.925 48.925 16.125 62.5 16.125H77.5C91.075 16.125 96.875 21.925 96.875 35.5V50.5C96.875 64.075 91.075 69.875 77.5 69.875ZM62.5 19.875C50.975 19.875 46.875 23.975 46.875 35.5V50.5C46.875 62.025 50.975 66.125 62.5 66.125H77.5C89.025 66.125 93.125 62.025 93.125 50.5V35.5C93.125 23.975 89.025 19.875 77.5 19.875H62.5Z" fill="white"/>
<path d="M66.8996 53.9248C65.8496 53.9248 64.8746 53.6748 63.9996 53.1748C61.9996 52.0248 60.8496 49.6748 60.8496 46.6998V39.2998C60.8496 36.3498 61.9996 33.9748 63.9996 32.8248C65.9996 31.6748 68.5996 31.8498 71.1746 33.3498L77.5996 37.0498C80.1496 38.5248 81.6246 40.6998 81.6246 42.9998C81.6246 45.2998 80.1496 47.4748 77.5996 48.9498L71.1746 52.6498C69.7246 53.4998 68.2496 53.9248 66.8996 53.9248ZM66.9246 35.8248C66.5246 35.8248 66.1746 35.8998 65.8996 36.0748C65.0996 36.5498 64.6246 37.7248 64.6246 39.2998V46.6998C64.6246 48.2748 65.0746 49.4498 65.8996 49.9248C66.6996 50.3998 67.9496 50.1998 69.3246 49.3998L75.7496 45.6998C77.1246 44.8998 77.8996 43.9248 77.8996 42.9998C77.8996 42.0748 77.1246 41.0748 75.7496 40.2998L69.3246 36.5998C68.4246 36.0748 67.5996 35.8248 66.9246 35.8248Z" fill="white"/>
</svg>
