<svg width="140" height="85" viewBox="0 0 140 85" fill="none" xmlns="http://www.w3.org/2000/svg">
<rect x="2.5" y="2.5" width="135" height="80" rx="17.5" fill="#FF8E1F" stroke="white" stroke-width="5"/>
<path d="M56.2994 50.65C55.8244 50.65 55.3494 50.475 54.9744 50.1C54.2494 49.375 54.2494 48.175 54.9744 47.45L62.5994 39.825C63.3244 39.1 64.5244 39.1 65.2494 39.825C65.9744 40.55 65.9744 41.75 65.2494 42.475L57.6244 50.1C57.2494 50.45 56.7744 50.65 56.2994 50.65Z" fill="white"/>
<path d="M64.0016 50.7252C63.5266 50.7252 63.0516 50.5502 62.6766 50.1752L55.0516 42.5502C54.3266 41.8252 54.3266 40.6252 55.0516 39.9002C55.7766 39.1752 56.9766 39.1752 57.7016 39.9002L65.3266 47.5252C66.0516 48.2502 66.0516 49.4502 65.3266 50.1752C64.9516 50.5502 64.4766 50.7252 64.0016 50.7252Z" fill="white"/>
<path d="M73.8512 47.5C72.4762 47.5 71.3262 46.375 71.3262 45C71.3262 43.625 72.4262 42.5 73.8012 42.5H73.8512C75.2262 42.5 76.3512 43.625 76.3512 45C76.3512 46.375 75.2512 47.5 73.8512 47.5Z" fill="white"/>
<path d="M83.6998 47.5C82.3248 47.5 81.1748 46.375 81.1748 45C81.1748 43.625 82.2748 42.5 83.6498 42.5H83.6998C85.0748 42.5 86.1998 43.625 86.1998 45C86.1998 46.375 85.0748 47.5 83.6998 47.5Z" fill="white"/>
<path d="M78.75 52.4254C77.375 52.4254 76.25 51.3254 76.25 49.9504V49.9004C76.25 48.5254 77.375 47.4004 78.75 47.4004C80.125 47.4004 81.25 48.5254 81.25 49.9004C81.25 51.2754 80.15 52.4254 78.75 52.4254Z" fill="white"/>
<path d="M78.75 42.5748C77.375 42.5748 76.25 41.4748 76.25 40.0998V40.0498C76.25 38.6748 77.375 37.5498 78.75 37.5498C80.125 37.5498 81.25 38.6748 81.25 40.0498C81.25 41.4248 80.15 42.5748 78.75 42.5748Z" fill="white"/>
<path d="M77.5 66.875H62.5C48.925 66.875 43.125 61.075 43.125 47.5V42.5C43.125 28.925 48.925 23.125 62.5 23.125H77.5C91.075 23.125 96.875 28.925 96.875 42.5V47.5C96.875 61.075 91.075 66.875 77.5 66.875ZM62.5 26.875C50.975 26.875 46.875 30.975 46.875 42.5V47.5C46.875 59.025 50.975 63.125 62.5 63.125H77.5C89.025 63.125 93.125 59.025 93.125 47.5V42.5C93.125 30.975 89.025 26.875 77.5 26.875H62.5Z" fill="white"/>
<path d="M72.4756 26.875H69.9756C67.5756 26.875 65.6006 24.9 65.6006 22.5C65.6006 20.1 67.5506 18.125 69.9506 18.125C70.3506 18.125 70.6256 17.85 70.6506 17.5L70.6756 14.975C70.7006 13.95 71.5256 13.125 72.5506 13.125H72.5756C73.6006 13.15 74.4506 14 74.4256 15.025L74.4006 17.55C74.3756 19.925 72.4006 21.875 70.0256 21.875C69.6256 21.875 69.3756 22.15 69.3756 22.5C69.3756 22.85 69.6506 23.125 70.0006 23.125H72.5006C73.5256 23.125 74.3756 23.975 74.3756 25C74.3756 26.025 73.5006 26.875 72.4756 26.875Z" fill="white"/>
</svg>
