<svg width="140" height="85" viewBox="0 0 140 85" fill="none" xmlns="http://www.w3.org/2000/svg">
<rect x="2.5" y="2.5" width="135" height="80" rx="17.5" fill="#1CEA56" stroke="white" stroke-width="5"/>
<path d="M70 68.1998C69.25 68.1998 68.5 68.0248 67.875 67.6748C63.2 65.1248 54.975 62.4248 49.825 61.7498L49.1 61.6498C45.825 61.2498 43.125 58.1748 43.125 54.8498V24.6498C43.125 22.6748 43.9 20.8748 45.325 19.5748C46.75 18.2748 48.6 17.6498 50.55 17.8248C56.05 18.2498 64.35 20.9998 69.05 23.9498L69.65 24.2998C69.825 24.3998 70.2 24.3998 70.35 24.3248L70.75 24.0748C75.45 21.1248 83.75 18.3248 89.275 17.8498C89.325 17.8498 89.525 17.8498 89.575 17.8498C91.4 17.6748 93.275 18.3248 94.675 19.6248C96.1 20.9248 96.875 22.7248 96.875 24.6998V54.8748C96.875 58.2248 94.175 61.2748 90.875 61.6748L90.05 61.7748C84.9 62.4498 76.65 65.1748 72.075 67.6998C71.475 68.0498 70.75 68.1998 70 68.1998ZM49.95 21.5498C49.15 21.5498 48.425 21.8248 47.85 22.3498C47.225 22.9248 46.875 23.7498 46.875 24.6498V54.8498C46.875 56.3248 48.15 57.7498 49.575 57.9498L50.325 58.0498C55.95 58.7998 64.575 61.6248 69.575 64.3498C69.8 64.4498 70.125 64.4748 70.25 64.4248C75.25 61.6498 83.925 58.7998 89.575 58.0498L90.425 57.9498C91.85 57.7748 93.125 56.3248 93.125 54.8498V24.6748C93.125 23.7498 92.775 22.9498 92.15 22.3498C91.5 21.7748 90.675 21.4998 89.75 21.5498C89.7 21.5498 89.5 21.5498 89.45 21.5498C84.675 21.9748 76.975 24.5498 72.775 27.1748L72.375 27.4498C71 28.2998 69.05 28.2998 67.725 27.4748L67.125 27.1248C62.85 24.4998 55.15 21.9498 50.25 21.5498C50.15 21.5498 50.05 21.5498 49.95 21.5498Z" fill="white"/>
<path d="M70 66.0996C68.975 66.0996 68.125 65.2496 68.125 64.2246V26.7246C68.125 25.6996 68.975 24.8496 70 24.8496C71.025 24.8496 71.875 25.6996 71.875 26.7246V64.2246C71.875 65.2746 71.025 66.0996 70 66.0996Z" fill="white"/>
<path d="M59.375 36.0996H53.75C52.725 36.0996 51.875 35.2496 51.875 34.2246C51.875 33.1996 52.725 32.3496 53.75 32.3496H59.375C60.4 32.3496 61.25 33.1996 61.25 34.2246C61.25 35.2496 60.4 36.0996 59.375 36.0996Z" fill="white"/>
<path d="M61.25 43.5996H53.75C52.725 43.5996 51.875 42.7496 51.875 41.7246C51.875 40.6996 52.725 39.8496 53.75 39.8496H61.25C62.275 39.8496 63.125 40.6996 63.125 41.7246C63.125 42.7496 62.275 43.5996 61.25 43.5996Z" fill="white"/>
</svg>
