<svg width="72" height="125" viewBox="0 0 72 125" fill="none" xmlns="http://www.w3.org/2000/svg">
<path d="M57 0C65.2843 0 72 6.71573 72 15V110C72 118.284 65.2843 125 57 125H0L0 0L57 0Z" fill="white"/>
<path d="M43.5 89.875H28.5C14.925 89.875 9.125 84.075 9.125 70.5V55.5C9.125 41.925 14.925 36.125 28.5 36.125H43.5C57.075 36.125 62.875 41.925 62.875 55.5V70.5C62.875 84.075 57.075 89.875 43.5 89.875ZM28.5 39.875C16.975 39.875 12.875 43.975 12.875 55.5V70.5C12.875 82.025 16.975 86.125 28.5 86.125H43.5C55.025 86.125 59.125 82.025 59.125 70.5V55.5C59.125 43.975 55.025 39.875 43.5 39.875H28.5Z" fill="#F11D81"/>
<path d="M32.8996 73.9248C31.8496 73.9248 30.8746 73.6748 29.9996 73.1748C27.9996 72.0248 26.8496 69.6748 26.8496 66.6998V59.2998C26.8496 56.3498 27.9996 53.9748 29.9996 52.8248C31.9996 51.6748 34.5996 51.8498 37.1746 53.3498L43.5996 57.0498C46.1496 58.5248 47.6246 60.6998 47.6246 62.9998C47.6246 65.2998 46.1496 67.4748 43.5996 68.9498L37.1746 72.6498C35.7246 73.4998 34.2496 73.9248 32.8996 73.9248ZM32.9246 55.8248C32.5246 55.8248 32.1746 55.8998 31.8996 56.0748C31.0996 56.5498 30.6246 57.7248 30.6246 59.2998V66.6998C30.6246 68.2748 31.0746 69.4498 31.8996 69.9248C32.6996 70.3998 33.9496 70.1998 35.3246 69.3998L41.7496 65.6998C43.1246 64.8998 43.8996 63.9248 43.8996 62.9998C43.8996 62.0748 43.1246 61.0748 41.7496 60.2998L35.3246 56.5998C34.4246 56.0748 33.5996 55.8248 32.9246 55.8248Z" fill="#F11D81"/>
</svg>
