<svg width="72" height="125" viewBox="0 0 72 125" fill="none" xmlns="http://www.w3.org/2000/svg">
<path d="M57 0C65.2843 0 72 6.71573 72 15V110C72 118.284 65.2843 125 57 125H0L0 0L57 0Z" fill="white"/>
<path d="M36 88.1998C35.25 88.1998 34.5 88.0248 33.875 87.6748C29.2 85.1248 20.975 82.4248 15.825 81.7498L15.1 81.6498C11.825 81.2498 9.125 78.1748 9.125 74.8498V44.6498C9.125 42.6748 9.9 40.8748 11.325 39.5748C12.75 38.2748 14.6 37.6498 16.55 37.8248C22.05 38.2498 30.35 40.9998 35.05 43.9498L35.65 44.2998C35.825 44.3998 36.2 44.3998 36.35 44.3248L36.75 44.0748C41.45 41.1248 49.75 38.3248 55.275 37.8498C55.325 37.8498 55.525 37.8498 55.575 37.8498C57.4 37.6748 59.275 38.3248 60.675 39.6248C62.1 40.9248 62.875 42.7248 62.875 44.6998V74.8748C62.875 78.2248 60.175 81.2748 56.875 81.6748L56.05 81.7748C50.9 82.4498 42.65 85.1748 38.075 87.6998C37.475 88.0498 36.75 88.1998 36 88.1998ZM15.95 41.5498C15.15 41.5498 14.425 41.8248 13.85 42.3498C13.225 42.9248 12.875 43.7498 12.875 44.6498V74.8498C12.875 76.3248 14.15 77.7498 15.575 77.9498L16.325 78.0498C21.95 78.7998 30.575 81.6248 35.575 84.3498C35.8 84.4498 36.125 84.4748 36.25 84.4248C41.25 81.6498 49.925 78.7998 55.575 78.0498L56.425 77.9498C57.85 77.7748 59.125 76.3248 59.125 74.8498V44.6748C59.125 43.7498 58.775 42.9498 58.15 42.3498C57.5 41.7748 56.675 41.4998 55.75 41.5498C55.7 41.5498 55.5 41.5498 55.45 41.5498C50.675 41.9748 42.975 44.5498 38.775 47.1748L38.375 47.4498C37 48.2998 35.05 48.2998 33.725 47.4748L33.125 47.1248C28.85 44.4998 21.15 41.9498 16.25 41.5498C16.15 41.5498 16.05 41.5498 15.95 41.5498Z" fill="#1CEA56"/>
<path d="M36 86.0996C34.975 86.0996 34.125 85.2496 34.125 84.2246V46.7246C34.125 45.6996 34.975 44.8496 36 44.8496C37.025 44.8496 37.875 45.6996 37.875 46.7246V84.2246C37.875 85.2746 37.025 86.0996 36 86.0996Z" fill="#1CEA56"/>
<path d="M25.375 56.0996H19.75C18.725 56.0996 17.875 55.2496 17.875 54.2246C17.875 53.1996 18.725 52.3496 19.75 52.3496H25.375C26.4 52.3496 27.25 53.1996 27.25 54.2246C27.25 55.2496 26.4 56.0996 25.375 56.0996Z" fill="#1CEA56"/>
<path d="M27.25 63.5996H19.75C18.725 63.5996 17.875 62.7496 17.875 61.7246C17.875 60.6996 18.725 59.8496 19.75 59.8496H27.25C28.275 59.8496 29.125 60.6996 29.125 61.7246C29.125 62.7496 28.275 63.5996 27.25 63.5996Z" fill="#1CEA56"/>
</svg>
