<svg width="72" height="125" viewBox="0 0 72 125" fill="none" xmlns="http://www.w3.org/2000/svg">
<path d="M57 0C65.2843 0 72 6.71573 72 15V110C72 118.284 65.2843 125 57 125H0L0 0L57 0Z" fill="white"/>
<path d="M22.3004 72.65C21.8254 72.65 21.3504 72.475 20.9754 72.1C20.2504 71.375 20.2504 70.175 20.9754 69.45L28.6004 61.825C29.3254 61.1 30.5254 61.1 31.2504 61.825C31.9754 62.55 31.9754 63.75 31.2504 64.475L23.6254 72.1C23.2504 72.45 22.7754 72.65 22.3004 72.65Z" fill="#FF8E1F"/>
<path d="M30.0016 72.7252C29.5266 72.7252 29.0516 72.5502 28.6766 72.1752L21.0516 64.5502C20.3266 63.8252 20.3266 62.6252 21.0516 61.9002C21.7766 61.1752 22.9766 61.1752 23.7016 61.9002L31.3266 69.5252C32.0516 70.2502 32.0516 71.4502 31.3266 72.1752C30.9516 72.5502 30.4766 72.7252 30.0016 72.7252Z" fill="#FF8E1F"/>
<path d="M39.8512 69.5C38.4762 69.5 37.3262 68.375 37.3262 67C37.3262 65.625 38.4262 64.5 39.8012 64.5H39.8512C41.2262 64.5 42.3512 65.625 42.3512 67C42.3512 68.375 41.2512 69.5 39.8512 69.5Z" fill="#FF8E1F"/>
<path d="M49.6988 69.5C48.3238 69.5 47.1738 68.375 47.1738 67C47.1738 65.625 48.2738 64.5 49.6488 64.5H49.6988C51.0738 64.5 52.1988 65.625 52.1988 67C52.1988 68.375 51.0738 69.5 49.6988 69.5Z" fill="#FF8E1F"/>
<path d="M44.75 74.4254C43.375 74.4254 42.25 73.3254 42.25 71.9504V71.9004C42.25 70.5254 43.375 69.4004 44.75 69.4004C46.125 69.4004 47.25 70.5254 47.25 71.9004C47.25 73.2754 46.15 74.4254 44.75 74.4254Z" fill="#FF8E1F"/>
<path d="M44.75 64.5748C43.375 64.5748 42.25 63.4748 42.25 62.0998V62.0498C42.25 60.6748 43.375 59.5498 44.75 59.5498C46.125 59.5498 47.25 60.6748 47.25 62.0498C47.25 63.4248 46.15 64.5748 44.75 64.5748Z" fill="#FF8E1F"/>
<path d="M43.5 88.875H28.5C14.925 88.875 9.125 83.075 9.125 69.5V64.5C9.125 50.925 14.925 45.125 28.5 45.125H43.5C57.075 45.125 62.875 50.925 62.875 64.5V69.5C62.875 83.075 57.075 88.875 43.5 88.875ZM28.5 48.875C16.975 48.875 12.875 52.975 12.875 64.5V69.5C12.875 81.025 16.975 85.125 28.5 85.125H43.5C55.025 85.125 59.125 81.025 59.125 69.5V64.5C59.125 52.975 55.025 48.875 43.5 48.875H28.5Z" fill="#FF8E1F"/>
<path d="M38.4766 48.875H35.9766C33.5766 48.875 31.6016 46.9 31.6016 44.5C31.6016 42.1 33.5516 40.125 35.9516 40.125C36.3516 40.125 36.6266 39.85 36.6516 39.5L36.6766 36.975C36.7016 35.95 37.5266 35.125 38.5516 35.125H38.5766C39.6016 35.15 40.4516 36 40.4266 37.025L40.4016 39.55C40.3766 41.925 38.4016 43.875 36.0266 43.875C35.6266 43.875 35.3766 44.15 35.3766 44.5C35.3766 44.85 35.6516 45.125 36.0016 45.125H38.5016C39.5266 45.125 40.3766 45.975 40.3766 47C40.3766 48.025 39.5016 48.875 38.4766 48.875Z" fill="#FF8E1F"/>
</svg>
