<svg width="108" height="108" viewBox="0 0 108 108" fill="none" xmlns="http://www.w3.org/2000/svg">
<g filter="url(#filter0_d_421_483)">
<rect x="14" y="14" width="80" height="80" rx="15" fill="white"/>
<rect x="12" y="12" width="84" height="84" rx="17" stroke="#BB9C5E" stroke-width="4"/>
</g>
<path d="M54 63.375C48.825 63.375 44.625 59.175 44.625 54C44.625 48.825 48.825 44.625 54 44.625C59.175 44.625 63.375 48.825 63.375 54C63.375 59.175 59.175 63.375 54 63.375ZM54 48.375C50.9 48.375 48.375 50.9 48.375 54C48.375 57.1 50.9 59.625 54 59.625C57.1 59.625 59.625 57.1 59.625 54C59.625 50.9 57.1 48.375 54 48.375Z" fill="#BB9C5E"/>
<path d="M62.025 79.4752C61.5 79.4752 60.975 79.4002 60.45 79.2752C58.9 78.8502 57.6 77.8752 56.775 76.5002L56.475 76.0002C55 73.4502 52.975 73.4502 51.5 76.0002L51.225 76.4752C50.4 77.8752 49.1 78.8752 47.55 79.2752C45.975 79.7002 44.35 79.4752 42.975 78.6502L38.675 76.1752C37.15 75.3002 36.05 73.8752 35.575 72.1502C35.125 70.4252 35.35 68.6502 36.225 67.1252C36.95 65.8502 37.15 64.7002 36.725 63.9752C36.3 63.2502 35.225 62.8252 33.75 62.8252C30.1 62.8252 27.125 59.8502 27.125 56.2002V51.8002C27.125 48.1502 30.1 45.1752 33.75 45.1752C35.225 45.1752 36.3 44.7502 36.725 44.0252C37.15 43.3002 36.975 42.1502 36.225 40.8752C35.35 39.3502 35.125 37.5502 35.575 35.8502C36.025 34.1252 37.125 32.7002 38.675 31.8252L43 29.3502C45.825 27.6752 49.55 28.6502 51.25 31.5252L51.55 32.0252C53.025 34.5752 55.05 34.5752 56.525 32.0252L56.8 31.5502C58.5 28.6502 62.225 27.6752 65.075 29.3752L69.375 31.8502C70.9 32.7252 72 34.1502 72.475 35.8752C72.925 37.6002 72.7 39.3752 71.825 40.9002C71.1 42.1752 70.9 43.3252 71.325 44.0502C71.75 44.7752 72.825 45.2002 74.3 45.2002C77.95 45.2002 80.925 48.1752 80.925 51.8252V56.2252C80.925 59.8752 77.95 62.8502 74.3 62.8502C72.825 62.8502 71.75 63.2752 71.325 64.0002C70.9 64.7252 71.075 65.8752 71.825 67.1502C72.7 68.6752 72.95 70.4752 72.475 72.1752C72.025 73.9002 70.925 75.3252 69.375 76.2002L65.05 78.6752C64.1 79.2002 63.075 79.4752 62.025 79.4752ZM54 70.2252C56.225 70.2252 58.3 71.6252 59.725 74.1002L60 74.5752C60.3 75.1002 60.8 75.4752 61.4 75.6252C62 75.7752 62.6 75.7002 63.1 75.4002L67.425 72.9002C68.075 72.5252 68.575 71.9002 68.775 71.1502C68.975 70.4002 68.875 69.6252 68.5 68.9752C67.075 66.5252 66.9 64.0002 68 62.0752C69.1 60.1502 71.375 59.0502 74.225 59.0502C75.825 59.0502 77.1 57.7752 77.1 56.1752V51.7752C77.1 50.2002 75.825 48.9002 74.225 48.9002C71.375 48.9002 69.1 47.8002 68 45.8752C66.9 43.9502 67.075 41.4252 68.5 38.9752C68.875 38.3252 68.975 37.5502 68.775 36.8002C68.575 36.0502 68.1 35.4502 67.45 35.0502L63.125 32.5752C62.05 31.9252 60.625 32.3002 59.975 33.4002L59.7 33.8752C58.275 36.3502 56.2 37.7502 53.975 37.7502C51.75 37.7502 49.675 36.3502 48.25 33.8752L47.975 33.3752C47.35 32.3252 45.95 31.9502 44.875 32.5752L40.55 35.0752C39.9 35.4502 39.4 36.0752 39.2 36.8252C39 37.5752 39.1 38.3502 39.475 39.0002C40.9 41.4502 41.075 43.9752 39.975 45.9002C38.875 47.8252 36.6 48.9252 33.75 48.9252C32.15 48.9252 30.875 50.2002 30.875 51.8002V56.2002C30.875 57.7752 32.15 59.0752 33.75 59.0752C36.6 59.0752 38.875 60.1752 39.975 62.1002C41.075 64.0252 40.9 66.5502 39.475 69.0002C39.1 69.6502 39 70.4252 39.2 71.1752C39.4 71.9252 39.875 72.5252 40.525 72.9252L44.85 75.4002C45.375 75.7252 46 75.8002 46.575 75.6502C47.175 75.5002 47.675 75.1002 48 74.5752L48.275 74.1002C49.7 71.6502 51.775 70.2252 54 70.2252Z" fill="#BB9C5E"/>
<defs>
<filter id="filter0_d_421_483" x="0" y="0" width="108" height="108" filterUnits="userSpaceOnUse" color-interpolation-filters="sRGB">
<feFlood flood-opacity="0" result="BackgroundImageFix"/>
<feColorMatrix in="SourceAlpha" type="matrix" values="0 0 0 0 0 0 0 0 0 0 0 0 0 0 0 0 0 0 127 0" result="hardAlpha"/>
<feOffset/>
<feGaussianBlur stdDeviation="5"/>
<feComposite in2="hardAlpha" operator="out"/>
<feColorMatrix type="matrix" values="0 0 0 0 0 0 0 0 0 0 0 0 0 0 0 0 0 0 0.25 0"/>
<feBlend mode="normal" in2="BackgroundImageFix" result="effect1_dropShadow_421_483"/>
<feBlend mode="normal" in="SourceGraphic" in2="effect1_dropShadow_421_483" result="shape"/>
</filter>
</defs>
</svg>
