<svg width="108" height="108" viewBox="0 0 108 108" fill="none" xmlns="http://www.w3.org/2000/svg">
<g filter="url(#filter0_d_421_486)">
<rect x="14" y="14" width="80" height="80" rx="15" fill="white"/>
<rect x="12" y="12" width="84" height="84" rx="17" stroke="#BB9C5E" stroke-width="4"/>
</g>
<path d="M55.375 75.475C53.4 75.475 51.225 74.775 49.05 73.4L41.75 68.825C41.25 68.525 40.675 68.35 40.1 68.35H36.5C30.45 68.35 27.125 65.025 27.125 58.975V48.975C27.125 42.925 30.45 39.6 36.5 39.6H40.075C40.65 39.6 41.225 39.425 41.725 39.125L49.025 34.55C52.675 32.275 56.225 31.85 59.025 33.4C61.825 34.95 63.35 38.175 63.35 42.5V65.425C63.35 69.725 61.8 72.975 59.025 74.525C57.925 75.175 56.675 75.475 55.375 75.475ZM36.5 43.375C32.55 43.375 30.875 45.05 30.875 49V59C30.875 62.95 32.55 64.625 36.5 64.625H40.075C41.375 64.625 42.625 64.975 43.725 65.675L51.025 70.25C53.425 71.75 55.7 72.15 57.225 71.3C58.75 70.45 59.625 68.325 59.625 65.5V42.525C59.625 39.675 58.75 37.55 57.225 36.725C55.7 35.875 53.425 36.25 51.025 37.775L43.7 42.325C42.625 43.025 41.35 43.375 40.075 43.375H36.5Z" fill="#BB9C5E"/>
<path d="M68.9997 65.8752C68.5997 65.8752 68.2247 65.7502 67.8747 65.5002C67.0497 64.8752 66.8747 63.7002 67.4997 62.8752C71.4247 57.6502 71.4247 50.3502 67.4997 45.1252C66.8747 44.3002 67.0497 43.1252 67.8747 42.5002C68.6997 41.8752 69.8747 42.0502 70.4997 42.8752C75.3997 49.4252 75.3997 58.5752 70.4997 65.1252C70.1247 65.6252 69.5747 65.8752 68.9997 65.8752Z" fill="#BB9C5E"/>
<path d="M73.5749 72.1252C73.1749 72.1252 72.7999 72.0002 72.4499 71.7502C71.6249 71.1252 71.4499 69.9502 72.0749 69.1252C78.7499 60.2252 78.7499 47.7752 72.0749 38.8752C71.4499 38.0502 71.6249 36.8752 72.4499 36.2502C73.2749 35.6252 74.4499 35.8002 75.0749 36.6252C82.7499 46.8502 82.7499 61.1502 75.0749 71.3752C74.7249 71.8752 74.1499 72.1252 73.5749 72.1252Z" fill="#BB9C5E"/>
<defs>
<filter id="filter0_d_421_486" x="0" y="0" width="108" height="108" filterUnits="userSpaceOnUse" color-interpolation-filters="sRGB">
<feFlood flood-opacity="0" result="BackgroundImageFix"/>
<feColorMatrix in="SourceAlpha" type="matrix" values="0 0 0 0 0 0 0 0 0 0 0 0 0 0 0 0 0 0 127 0" result="hardAlpha"/>
<feOffset/>
<feGaussianBlur stdDeviation="5"/>
<feComposite in2="hardAlpha" operator="out"/>
<feColorMatrix type="matrix" values="0 0 0 0 0 0 0 0 0 0 0 0 0 0 0 0 0 0 0.25 0"/>
<feBlend mode="normal" in2="BackgroundImageFix" result="effect1_dropShadow_421_486"/>
<feBlend mode="normal" in="SourceGraphic" in2="effect1_dropShadow_421_486" result="shape"/>
</filter>
</defs>
</svg>
